<?xml version="1.0" encoding="UTF-8" standalone="no"?>
<!-- Generator: Adobe Illustrator 15.0.0, SVG Export Plug-In . SVG Version: 6.00 Build 0)  -->

<svg
   version="1.1"
   x="0px"
   y="0px"
   width="197.998"
   height="197.998"
   viewBox="0 0 197.998 197.998"
   xml:space="preserve"
   id="svg70"
   sodipodi:docname="Round_Landmark_Icon_City.svg"
   inkscape:version="1.1 (c4e8f9e, 2021-05-24)"
   xmlns:inkscape="http://www.inkscape.org/namespaces/inkscape"
   xmlns:sodipodi="http://sodipodi.sourceforge.net/DTD/sodipodi-0.dtd"
   xmlns="http://www.w3.org/2000/svg"
   xmlns:svg="http://www.w3.org/2000/svg"><defs
   id="defs74" /><sodipodi:namedview
   id="namedview72"
   pagecolor="#ffffff"
   bordercolor="#111111"
   borderopacity="1"
   inkscape:pageshadow="0"
   inkscape:pageopacity="0"
   inkscape:pagecheckerboard="1"
   showgrid="false"
   inkscape:zoom="1.1190385"
   inkscape:cx="-42.893968"
   inkscape:cy="50.936587"
   inkscape:window-width="1366"
   inkscape:window-height="698"
   inkscape:window-x="0"
   inkscape:window-y="0"
   inkscape:window-maximized="1"
   inkscape:current-layer="City" />
<g
   id="City"
   transform="translate(-18.501,-18.501)">
	<rect
   y="24.218548"
   style="fill:#8dd35f"
   width="191.17574"
   height="190.17326"
   id="rect2"
   x="22.520914"
   ry="95.086632" />
	<path
   style="fill:#80b3ff"
   d="m 117.5,18.501 c -54.675,0 -98.999,44.324 -98.999,99 0,54.675 44.324,98.998 98.999,98.998 54.675,0 98.999,-44.323 98.999,-98.998 0,-54.676 -44.324,-99 -98.999,-99 z m 0,184.478 c -47.209,0 -85.479,-38.27 -85.479,-85.479 0,-47.208 38.27,-85.479 85.479,-85.479 47.209,0 85.479,38.27 85.479,85.479 0,47.209 -38.27,85.479 -85.479,85.479 z"
   id="path4" />
	<circle
   style="fill:#ffeeaa"
   cx="117.5"
   cy="117.5"
   r="79.725998"
   id="circle6" />
	<ellipse
   cx="117.5"
   cy="154.689"
   rx="68.195"
   ry="8.8649998"
   id="ellipse8"
   style="fill:#00aa00;fill-opacity:1" />
	<rect
   x="70.938004"
   y="101.125"
   style="fill:#806600"
   width="26.822998"
   height="41.960999"
   id="rect10" /><rect
   x="104.011"
   y="104.675"
   style="fill:#c83737"
   width="26.822998"
   height="41.960999"
   id="rect10-3" />
	<rect
   x="139.688"
   y="82.001999"
   style="fill:#ff8080"
   width="22.916"
   height="58.969002"
   id="rect12" />
	<polygon
   style="fill:#782144"
   points="59.48,111.375 83.438,111.375 83.438,136.355 88.125,136.355 88.125,76.794 100.626,64.294 113.646,76.794 113.646,141.377 124.063,141.377 124.063,120.023 144.896,120.023 144.896,105.292 174.063,105.292 174.063,154.689 59.48,154.689 "
   id="polygon14" />
	<g
   id="g46"
   style="fill:#afdde9">
		<rect
   x="89.428001"
   y="80.699997"
   style="fill:#afdde9"
   width="6.25"
   height="9.6350002"
   id="rect16" />
		<rect
   x="97.761002"
   y="80.699997"
   style="fill:#afdde9"
   width="6.25"
   height="9.6350002"
   id="rect18" />
		<rect
   x="105.834"
   y="80.699997"
   style="fill:#afdde9"
   width="6.25"
   height="9.6350002"
   id="rect20" />
		<rect
   x="89.428001"
   y="92.679001"
   style="fill:#afdde9"
   width="6.25"
   height="9.6350002"
   id="rect22" />
		<rect
   x="97.761002"
   y="92.679001"
   style="fill:#afdde9"
   width="6.25"
   height="9.6350002"
   id="rect24" />
		<rect
   x="105.834"
   y="92.679001"
   style="fill:#afdde9"
   width="6.25"
   height="9.6350002"
   id="rect26" />
		<rect
   x="89.428001"
   y="104.675"
   style="fill:#afdde9"
   width="6.25"
   height="9.6350002"
   id="rect28" />
		<rect
   x="97.761002"
   y="104.675"
   style="fill:#afdde9"
   width="6.25"
   height="9.6350002"
   id="rect30" />
		<rect
   x="105.834"
   y="104.675"
   style="fill:#afdde9"
   width="6.25"
   height="9.6350002"
   id="rect32" />
		<rect
   x="89.428001"
   y="143.086"
   style="fill:#afdde9"
   width="6.25"
   height="9.6359997"
   id="rect34" />
		<rect
   x="97.761002"
   y="143.086"
   style="fill:#afdde9"
   width="6.25"
   height="9.6359997"
   id="rect36" />
		<rect
   x="105.834"
   y="143.086"
   style="fill:#afdde9"
   width="6.25"
   height="9.6359997"
   id="rect38" />
		<rect
   x="60.131001"
   y="124.857"
   style="fill:#afdde9"
   width="6.25"
   height="9.6350002"
   id="rect40" />
		<rect
   x="68.463997"
   y="124.857"
   style="fill:#afdde9"
   width="6.25"
   height="9.6350002"
   id="rect42" />
		<rect
   x="76.537003"
   y="124.857"
   style="fill:#afdde9"
   width="6.25"
   height="9.6350002"
   id="rect44" />
	</g>
	<g
   id="g66"
   style="fill:#afdde9">
		<rect
   x="148.021"
   y="108.06"
   style="fill:#afdde9"
   width="6.25"
   height="9.6350002"
   id="rect48" />
		<rect
   x="156.354"
   y="108.06"
   style="fill:#afdde9"
   width="6.25"
   height="9.6350002"
   id="rect50" />
		<rect
   x="164.42799"
   y="108.06"
   style="fill:#afdde9"
   width="6.25"
   height="9.6350002"
   id="rect52" />
		<rect
   x="148.021"
   y="120.039"
   style="fill:#afdde9"
   width="6.25"
   height="9.6359997"
   id="rect54" />
		<rect
   x="156.354"
   y="120.039"
   style="fill:#afdde9"
   width="6.25"
   height="9.6359997"
   id="rect56" />
		<rect
   x="164.42799"
   y="120.039"
   style="fill:#afdde9"
   width="6.25"
   height="9.6359997"
   id="rect58" />
		<rect
   x="148.021"
   y="143.086"
   style="fill:#afdde9"
   width="6.25"
   height="9.6359997"
   id="rect60" />
		<rect
   x="156.354"
   y="143.086"
   style="fill:#afdde9"
   width="6.25"
   height="9.6359997"
   id="rect62" />
		<rect
   x="164.42799"
   y="143.086"
   style="fill:#afdde9"
   width="6.25"
   height="9.6359997"
   id="rect64" />
	</g>
</g>
<g
   id="Layer_1"
   transform="translate(-18.501,-18.501)">
</g>
</svg>
