<?xml version="1.0" encoding="UTF-8" standalone="no"?>
<!-- Created with Inkscape (http://www.inkscape.org/) -->

<svg
   xmlns:dc="http://purl.org/dc/elements/1.1/"
   xmlns:cc="http://creativecommons.org/ns#"
   xmlns:rdf="http://www.w3.org/1999/02/22-rdf-syntax-ns#"
   xmlns:svg="http://www.w3.org/2000/svg"
   xmlns="http://www.w3.org/2000/svg"
   xmlns:sodipodi="http://sodipodi.sourceforge.net/DTD/sodipodi-0.dtd"
   xmlns:inkscape="http://www.inkscape.org/namespaces/inkscape"
   width="210mm"
   height="297mm"
   viewBox="0 0 744.09448819 1052.3622047"
   id="svg7698"
   version="1.1"
   inkscape:version="0.91 r"
   sodipodi:docname="shoppingbag3.svg">
  <defs
     id="defs7700" />
  <sodipodi:namedview
     id="base"
     pagecolor="#ffffff"
     bordercolor="#666666"
     borderopacity="1.0"
     inkscape:pageopacity="0.0"
     inkscape:pageshadow="2"
     inkscape:zoom="0.49497475"
     inkscape:cx="-21.057171"
     inkscape:cy="503.87756"
     inkscape:document-units="px"
     inkscape:current-layer="layer1"
     showgrid="false"
     inkscape:window-width="1366"
     inkscape:window-height="702"
     inkscape:window-x="0"
     inkscape:window-y="27"
     inkscape:window-maximized="1" />
  <metadata
     id="metadata7703">
    <rdf:RDF>
      <cc:Work
         rdf:about="">
        <dc:format>image/svg+xml</dc:format>
        <dc:type
           rdf:resource="http://purl.org/dc/dcmitype/StillImage" />
        <dc:title></dc:title>
      </cc:Work>
    </rdf:RDF>
  </metadata>
  <g
     inkscape:label="Layer 1"
     inkscape:groupmode="layer"
     id="layer1">
    <path
       style="fill:#d35f8d;fill-opacity:1;fill-rule:nonzero;stroke:none"
       d="m 295.23899,82.086403 c -52.12286,0 -94.37768,66.456117 -94.37768,148.421567 0,34.97123 7.72506,67.07577 20.59355,92.44352 l -0.28457,-4.72174 24.80331,-8.02125 c -11.2073,-20.87957 -17.9767,-47.8528 -17.9767,-77.31123 0,-66.21194 34.12531,-119.86362 76.23035,-119.86362 42.105,0 76.23032,53.65168 76.23032,119.86362 0,12.08327 -1.12854,23.7588 -3.24262,34.75877 l 9.89857,-3.18573 c 1.62466,-10.91008 2.50308,-22.27369 2.50308,-33.96234 0,-81.96545 -42.25482,-148.421567 -94.37773,-148.421567 z"
       id="path6102"
       inkscape:connector-curvature="0"
       inkscape:export-filename="/home/devonique/Desktop/Inkscape Portfolio/SHOPPING.png"
       inkscape:export-xdpi="90"
       inkscape:export-ydpi="90" />
    <path
       inkscape:connector-curvature="0"
       id="path5984"
       d="M 41.145171,370.5255 486.36393,224.22537 506.26658,611.88293 c 0,0 -481.112578,195.04562 -470.710139,192.44504 10.402439,-2.60063 5.58873,-433.80247 5.58873,-433.80247 z"
       style="fill:#e9afc6;fill-opacity:1;stroke:none"
       sodipodi:nodetypes="cccsc"
       inkscape:export-filename="/home/devonique/Desktop/Inkscape Portfolio/SHOPPING.png"
       inkscape:export-xdpi="90"
       inkscape:export-ydpi="90" />
    <path
       inkscape:connector-curvature="0"
       id="path5982"
       d="m 485.83622,224.39639 82.74938,44.55579 152.2312,-18.55385 -22.10519,452.50591 c 0,0 -218.02091,-93.97511 -218.02091,-104.37755 0,-10.40244 5.14552,-374.1303 5.14552,-374.1303 z"
       style="fill:#d35f8d;stroke:none"
       sodipodi:nodetypes="ccccsc"
       inkscape:export-filename="/home/devonique/Desktop/Inkscape Portfolio/SHOPPING.png"
       inkscape:export-xdpi="90"
       inkscape:export-ydpi="90" />
    <path
       id="path6107"
       d="m 455.80689,135.55952 c -52.12286,20.72811 -94.37768,103.98805 -94.37768,185.95354 0,34.97125 7.72507,64.00366 20.59355,84.25388 l -0.28456,-4.60861 24.80331,-17.88496 c -11.20734,-16.42268 -17.9767,-40.70386 -17.9767,-70.16229 0,-66.21194 34.12531,-133.43453 76.23032,-150.17878 42.10504,-16.74423 76.23034,23.33656 76.23034,89.54855 0,12.08323 -5.70784,56.17405 -7.82194,68.01483 l 12.06591,-1.99654 c 1.62466,-11.55618 4.91504,-60.36134 4.91504,-72.04994 0,-81.96548 -42.25483,-131.6178 -94.37771,-110.88968 z"
       style="fill:#de87aa;fill-opacity:1;fill-rule:nonzero;stroke:none"
       inkscape:connector-curvature="0"
       sodipodi:nodetypes="sscccsssccss"
       inkscape:export-filename="/home/devonique/Desktop/Inkscape Portfolio/SHOPPING.png"
       inkscape:export-xdpi="90"
       inkscape:export-ydpi="90" />
    <path
       sodipodi:nodetypes="ccccc"
       inkscape:connector-curvature="0"
       id="path5986"
       d="M 329.42521,393.43177 720.8168,250.39833 701.31225,697.70298 321.6234,903.15104 c 2.60058,-169.90637 15.32074,-461.07539 7.80181,-509.71927 z"
       style="fill:#f4d7e3;fill-opacity:1;stroke:none"
       inkscape:export-filename="/home/devonique/Desktop/Inkscape Portfolio/SHOPPING.png"
       inkscape:export-xdpi="90"
       inkscape:export-ydpi="90" />
    <path
       sodipodi:nodetypes="cccc"
       inkscape:connector-curvature="0"
       id="path5988"
       d="M 27.754627,806.92855 324.22398,905.75174 287.42238,687.88142 Z"
       style="fill:#e9afc6;fill-opacity:1;stroke:none"
       inkscape:export-filename="/home/devonique/Desktop/Inkscape Portfolio/SHOPPING.png"
       inkscape:export-xdpi="90"
       inkscape:export-ydpi="90" />
    <path
       inkscape:connector-curvature="0"
       id="path5992"
       d="M 35.556441,804.32797 279.09405,691.73193 281.63004,369.81366 40.577618,370.70507 Z"
       style="fill:#de87aa;fill-opacity:1;stroke:none"
       sodipodi:nodetypes="ccccc"
       inkscape:export-filename="/home/devonique/Desktop/Inkscape Portfolio/SHOPPING.png"
       inkscape:export-xdpi="90"
       inkscape:export-ydpi="90" />
    <path
       sodipodi:nodetypes="ccccc"
       inkscape:connector-curvature="0"
       id="path5990"
       d="m 322.92368,908.35224 c 0,-10.4024 -46.88052,-215.20978 -46.88052,-215.20978 l 4.87498,-323.07855 57.99187,21.83876 z"
       style="fill:#d35f8d;fill-opacity:1;stroke:none"
       inkscape:export-filename="/home/devonique/Desktop/Inkscape Portfolio/SHOPPING.png"
       inkscape:export-xdpi="90"
       inkscape:export-ydpi="90" />
    <path
       style="fill:#e9afc6;fill-opacity:1;stroke:none"
       d="m 720.8168,250.39833 -153.05782,18.84444 -1.39379,37.64303 z"
       id="path6076"
       inkscape:connector-curvature="0"
       sodipodi:nodetypes="cccc"
       inkscape:export-filename="/home/devonique/Desktop/Inkscape Portfolio/SHOPPING.png"
       inkscape:export-xdpi="90"
       inkscape:export-ydpi="90" />
  </g>
</svg>
